<svg xmlns="http://www.w3.org/2000/svg" viewBox="0 0 109 73"><defs><style>.cls-1{fill:#3a3164;}.cls-2{fill:#6c5bcb;}.cls-3{fill:#fff;}</style></defs><title>Ativo 1</title><g id="Camada_2" data-name="Camada 2"><g id="Camada_1-2" data-name="Camada 1"><rect class="cls-1" width="109" height="73" rx="6"/><path class="cls-2" d="M0,6A6,6,0,0,1,6,0h97a6,6,0,0,1,6,6v8H0Z"/><rect class="cls-3" x="43.12" y="52" width="33" height="7" rx="3.5"/><path class="cls-3" d="M19.8,59h0A3,3,0,0,1,20,54.79L33.86,42,20,29.27A3,3,0,0,1,19.8,25h0A3,3,0,0,1,24,24.85L39.88,39.41a3.56,3.56,0,0,1,0,5.24L24,59.21A3,3,0,0,1,19.8,59Z"/></g></g></svg>