<?xml version="1.0"?>
<svg xmlns="http://www.w3.org/2000/svg" xmlns:xlink="http://www.w3.org/1999/xlink" xmlns:svgjs="http://svgjs.com/svgjs" version="1.1" width="512" height="512" x="0" y="0" viewBox="0 0 512 512" style="enable-background:new 0 0 512 512" xml:space="preserve" class=""><g>
<path xmlns="http://www.w3.org/2000/svg" style="" d="M512,512H0V0h512V512z" fill="#fec478" data-original="#fec478" class=""/>
<path xmlns="http://www.w3.org/2000/svg" style="" d="M512,512H256V0h256V512z" fill="#fec478" data-original="#fea832" class=""/>
<path xmlns="http://www.w3.org/2000/svg" style="" d="M482,482H30V30h452V482z" fill="#994c0f" data-original="#994c0f" class=""/>
<path xmlns="http://www.w3.org/2000/svg" style="" d="M482,482H256V30h226V482z" fill="#994c0f" data-original="#713708" class=""/>
<path xmlns="http://www.w3.org/2000/svg" style="" d="M207.502,181.6h29.28l64.8,170.4h-34.08l-15.84-42.48h-59.52l-15.6,42.48h-34.08L207.502,181.6z   M245.662,286.24l-23.52-66.96l-24.48,66.96H245.662z" fill="#fec478" data-original="#fec478" class=""/>
<g xmlns="http://www.w3.org/2000/svg">
	<path style="" d="M317.182,208.72V176.8h32.159v31.92H317.182z M317.182,352V226.24h32.159V352H317.182z" fill="#fec478" data-original="#fea832" class=""/>
	<polygon style="" points="256,232.137 256,321.155 267.502,352 301.582,352  " fill="#fec478" data-original="#fea832" class=""/>
</g>
<g xmlns="http://www.w3.org/2000/svg">
</g>
<g xmlns="http://www.w3.org/2000/svg">
</g>
<g xmlns="http://www.w3.org/2000/svg">
</g>
<g xmlns="http://www.w3.org/2000/svg">
</g>
<g xmlns="http://www.w3.org/2000/svg">
</g>
<g xmlns="http://www.w3.org/2000/svg">
</g>
<g xmlns="http://www.w3.org/2000/svg">
</g>
<g xmlns="http://www.w3.org/2000/svg">
</g>
<g xmlns="http://www.w3.org/2000/svg">
</g>
<g xmlns="http://www.w3.org/2000/svg">
</g>
<g xmlns="http://www.w3.org/2000/svg">
</g>
<g xmlns="http://www.w3.org/2000/svg">
</g>
<g xmlns="http://www.w3.org/2000/svg">
</g>
<g xmlns="http://www.w3.org/2000/svg">
</g>
<g xmlns="http://www.w3.org/2000/svg">
</g>
</g></svg>
