<svg xmlns="http://www.w3.org/2000/svg" viewBox="0 0 127.37 38.52"><defs><style>.cls-1{fill:none;stroke:#fff;stroke-width:12px;}.cls-2{fill:#c275ff;}.cls-3{fill:#fff;}.cls-4{fill:#00b2ff;}</style></defs><title>Ativo 2</title><g id="Camada_2" data-name="Camada 2"><g id="Camada_1-2" data-name="Camada 1"><path class="cls-1" d="M6,0V30.5H25"/><circle class="cls-2" cx="42" cy="20.96" r="17"/><path class="cls-3" d="M82.57,20h9.84V34.25a23,23,0,0,1-6.91,3.17,28.41,28.41,0,0,1-7.73,1.1,20.72,20.72,0,0,1-9.65-2.2,17.14,17.14,0,0,1-6.72-6.24A17.5,17.5,0,0,1,59,21a17.25,17.25,0,0,1,2.4-9.08,16.66,16.66,0,0,1,6.77-6.24A21.16,21.16,0,0,1,78,3.39a22.07,22.07,0,0,1,8.83,1.68,16.48,16.48,0,0,1,6.53,4.8l-7.25,6.38a9.63,9.63,0,0,0-7.54-3.69,8,8,0,0,0-6,2.25A8.43,8.43,0,0,0,70.42,21a8.54,8.54,0,0,0,2.16,6.09,7.75,7.75,0,0,0,5.86,2.31,10.75,10.75,0,0,0,4.13-.82Z"/><circle class="cls-4" cx="110.37" cy="20.96" r="17"/></g></g></svg>