<svg xmlns="http://www.w3.org/2000/svg" viewBox="0 0 124.89 72.92"><defs><style>.cls-1{fill:#fff2f9;}.cls-2{fill:#007bb0;}.cls-3{fill:#c4c4c4;}.cls-4{fill:#ffb7de;}</style></defs><title>Ativo 1</title><g id="Camada_2" data-name="Camada 2"><g id="Camada_1-2" data-name="Camada 1"><rect class="cls-1" x="43.89" y="9.46" width="81" height="54" rx="6"/><rect class="cls-2" x="7.95" y="3.46" width="40" height="66" rx="4" transform="translate(-9.63 10.03) rotate(-17.41)"/><path class="cls-3" d="M31.78,59.55l7.64-2.39a2,2,0,0,1,2.5,1.31h0A2,2,0,0,1,40.61,61L33,63.37a2,2,0,0,1-2.51-1.31h0A2,2,0,0,1,31.78,59.55Z"/><path class="cls-4" d="M43.89,15.46a6,6,0,0,1,6-6h69a6,6,0,0,1,6,6v4h-81Z"/><rect class="cls-4" x="95.58" y="26.07" width="24" height="31" rx="2"/></g></g></svg>